<?xml version="1.0" encoding="utf-8"?>
<!-- Generator: Adobe Illustrator 24.3.0, SVG Export Plug-In . SVG Version: 6.00 Build 0)  -->
<svg version="1.1" xmlns="http://www.w3.org/2000/svg" xmlns:xlink="http://www.w3.org/1999/xlink" x="0px" y="0px"
	 viewBox="0 0 519.3 168.7" style="enable-background:new 0 0 519.3 168.7;" xml:space="preserve">
<style type="text/css">
	.st0{fill:#A5CD39;}
	.st1{fill:#F58D22;}
	.st2{fill:#EE3E23;}
	.st3{fill:#3B98E6;}
</style>
<g id="Слой_1">
	<g>
		<g>
			<g>
				<path d="M244.4,51.1l-24.2-34.3l-0.1-0.2c-1-1.3-9.9-12.9-26-12.9c-16.2,0-24.6,10.9-26.1,13L82.4,138.3
					c-4.9,6.9-3.2,16.5,3.7,21.4c2.6,1.8,5.6,2.8,8.8,2.8c5,0,9.7-2.4,12.6-6.5l85.2-121.2c0.1-0.1,0.5-0.3,1.2-0.3
					c0.7,0,1.2,0.5,1.5,0.7l23.8,33.6c4.9,6.9,14.5,8.6,21.4,3.7C247.6,67.7,249.3,58.1,244.4,51.1z"/>
				<path d="M379.1,49.1c-6.9-4.9-16.5-3.2-21.4,3.7l-54.6,78.7c-0.2,0.1-0.6,0.3-1.2,0.3c-0.7,0-1.2-0.5-1.5-0.7l-26.8-37.8
					c-4.9-6.9-14.5-8.6-21.4-3.7c-6.9,4.9-8.6,14.5-3.7,21.4l27.2,38.5l0.1,0.2c1,1.3,9.9,12.9,26,12.9c16.2,0,24.6-10.9,26.1-13
					l54.8-79C387.7,63.5,386.1,54,379.1,49.1z"/>
				<path d="M201.2,87.1H186c-8.5,0-15.4,6.9-15.4,15.4s6.9,15.4,15.4,15.4h15.1c8.5,0,15.4-6.9,15.4-15.4S209.6,87.1,201.2,87.1z"
					/>
				<path d="M448.6,48.9c-8.5,0-15.4,6.9-15.4,15.4v82.9c0,8.5,6.9,15.4,15.4,15.4s15.4-6.9,15.4-15.4V64.3
					C463.9,55.8,457,48.9,448.6,48.9z"/>
				<path d="M497.8,3.2h-97c-8.5,0-15.4,6.9-15.4,15.4s6.9,15.4,15.4,15.4h97c8.5,0,15.4-6.9,15.4-15.4S506.3,3.2,497.8,3.2z"/>
			</g>
			<g>
				<circle class="st0" cx="112" cy="18.6" r="15.1"/>
				<circle class="st1" cx="81.2" cy="60.4" r="15.1"/>
				<circle class="st2" cx="50.6" cy="103.9" r="15.1"/>
				<circle class="st3" cx="20.4" cy="147.4" r="15.1"/>
			</g>
		</g>
		<g>
			<path d="M503.6,148.3c-1.3-0.6-2.8-0.9-4.3-0.9c-1.2,0-2.3,0.2-3.3,0.5c-1,0.3-2,0.8-2.8,1.4c-0.8,0.6-1.5,1.4-1.9,2.4
				c-0.5,0.9-0.7,2-0.7,3.2v5.6c0,0.5,0.2,1,0.6,1.4s0.8,0.6,1.4,0.6H506c0.5,0,1-0.2,1.4-0.6c0.4-0.4,0.6-0.8,0.6-1.4v-5.6
				c0-1.6-0.4-3-1.2-4.1C505.9,149.7,504.9,148.8,503.6,148.3z M499.2,151.4c0.9,0,1.8,0.1,2.6,0.4c0.7,0.3,1.3,0.7,1.8,1.2
				c0.4,0.5,0.6,1.2,0.6,2.1v3.4h-10v-3.4c0-0.6,0.1-1.2,0.4-1.7c0.3-0.5,0.6-0.8,1-1.1c0.5-0.3,1-0.5,1.6-0.7
				C497.9,151.5,498.5,151.4,499.2,151.4z"/>
			<path d="M506,137.1h-13.5c-0.5,0-1,0.2-1.4,0.6c-0.4,0.4-0.5,0.8-0.5,1.3c0,0.6,0.2,1,0.6,1.4c0.4,0.4,0.8,0.6,1.4,0.6H506
				c0.5,0,1-0.2,1.4-0.5c0.4-0.4,0.6-0.8,0.6-1.4c0-0.5-0.2-1-0.5-1.4C507,137.3,506.5,137.1,506,137.1z"/>
			<path d="M492.9,128.1c0.8,0.8,1.8,1.5,2.8,1.9c1.1,0.5,2.2,0.7,3.5,0.7c1.2,0,2.4-0.2,3.5-0.7c1.1-0.5,2-1.1,2.8-1.9
				c0.8-0.8,1.5-1.8,1.9-2.9c0.5-1.1,0.7-2.3,0.7-3.5c0-1-0.1-1.9-0.4-2.8c-0.3-0.9-0.6-1.7-1.1-2.5c-0.2-0.3-0.4-0.5-0.6-0.6
				c-0.3-0.2-0.6-0.3-1.1-0.3h-5c-0.5,0-1,0.2-1.4,0.5c-0.4,0.4-0.6,0.8-0.6,1.4v3.8c0,0.5,0.2,1,0.5,1.4c0.4,0.4,0.8,0.6,1.4,0.6
				s1-0.2,1.4-0.6c0.4-0.4,0.5-0.8,0.5-1.4v-1.7h2.2c0.1,0.2,0.1,0.5,0.2,0.8c0.1,0.5,0.1,1,0.1,1.5c0,0.9-0.2,1.8-0.7,2.5
				c-0.5,0.8-1.1,1.4-1.9,1.8c-0.8,0.4-1.6,0.7-2.6,0.7c-0.9,0-1.8-0.2-2.6-0.7c-0.8-0.4-1.4-1.1-1.9-1.8c-0.5-0.8-0.7-1.6-0.7-2.5
				c0-0.4,0-0.9,0.1-1.3c0.1-0.4,0.2-0.8,0.4-1.1c0.1-0.1,0.1-0.3,0.2-0.5c0-0.2,0.1-0.3,0.1-0.5c0-0.5-0.2-1-0.6-1.3
				c-0.4-0.3-0.8-0.5-1.3-0.5c-0.3,0-0.6,0.1-0.9,0.2c-0.3,0.2-0.5,0.4-0.7,0.7c-0.3,0.6-0.6,1.3-0.7,2c-0.2,0.7-0.2,1.5-0.2,2.2
				c0,1.2,0.2,2.4,0.7,3.5C491.5,126.3,492.1,127.3,492.9,128.1z"/>
			<path d="M492.5,105c-0.5,0-1,0.2-1.4,0.6c-0.4,0.4-0.5,0.8-0.5,1.3c0,0.6,0.2,1,0.6,1.4c0.4,0.4,0.8,0.6,1.4,0.6H506
				c0.5,0,1-0.2,1.4-0.5c0.4-0.4,0.6-0.8,0.6-1.4c0-0.5-0.2-1-0.5-1.4c-0.4-0.4-0.8-0.6-1.4-0.6H492.5z"/>
			<path d="M507.4,90.3c-0.4-0.4-0.8-0.6-1.4-0.6h-11.8v-3.2c0-0.5-0.2-1-0.5-1.3c-0.3-0.4-0.8-0.6-1.3-0.6c-0.5,0-1,0.2-1.4,0.6
				c-0.3,0.4-0.5,0.8-0.5,1.4V97c0,0.5,0.2,1,0.5,1.3c0.3,0.4,0.8,0.6,1.3,0.6c0.5,0,1-0.2,1.4-0.6c0.3-0.4,0.5-0.8,0.5-1.4v-3.2
				H506c0.5,0,1-0.2,1.4-0.6c0.4-0.4,0.6-0.9,0.6-1.4C507.9,91.2,507.7,90.7,507.4,90.3z"/>
			<path d="M491.7,75.3l14,5.8l0,0l0,0c0.2,0.1,0.4,0.1,0.6,0.1c0.5,0,0.9-0.1,1.2-0.4c0.3-0.3,0.5-0.7,0.5-1.3c0-0.4-0.1-0.7-0.3-1
				c-0.2-0.3-0.5-0.5-0.9-0.7l-2.5-1.1v-6.3l2.5-1.1c0.4-0.2,0.7-0.4,0.9-0.7c0.2-0.3,0.4-0.7,0.4-1.1c0-0.5-0.2-0.9-0.5-1.2
				c-0.3-0.4-0.8-0.6-1.4-0.6c-0.2,0-0.5,0.1-0.7,0.2l-13.7,5.8c-0.4,0.1-0.7,0.4-0.9,0.7c-0.2,0.3-0.3,0.7-0.3,1
				c0,0.4,0.1,0.8,0.3,1.1C491,74.9,491.3,75.1,491.7,75.3z M496.9,73.5l3.7-1.6v3.2L496.9,73.5z"/>
			<path d="M492.5,60.1H506c0.5,0,1-0.2,1.4-0.6c0.4-0.4,0.6-0.8,0.6-1.4v-7.6c0-0.5-0.2-1-0.5-1.4c-0.4-0.4-0.8-0.6-1.3-0.6
				c-0.5,0-1,0.2-1.4,0.6c-0.3,0.4-0.5,0.8-0.5,1.4v5.6h-11.7c-0.5,0-1,0.2-1.4,0.6c-0.4,0.4-0.5,0.8-0.5,1.3c0,0.6,0.2,1,0.6,1.4
				C491.5,59.9,491.9,60.1,492.5,60.1z"/>
		</g>
	</g>
</g>
<g id="Слой_2">
</g>
</svg>
