<svg width="67" height="49" viewBox="0 0 67 49" fill="none" xmlns="http://www.w3.org/2000/svg">
<g id="61025758 1" clip-path="url(#clip0_46036_115)">
<g id="Group">
<path id="Vector" d="M7.83081 39.0835L7.34601 40.2471C6.46529 39.8861 5.50107 39.7057 4.45336 39.7057C2.67038 39.7057 1.77889 40.1838 1.77889 41.1399C1.77889 41.6301 1.99839 41.9816 2.43741 42.1943C2.87642 42.4098 3.58746 42.5822 4.57053 42.7115C7.09149 43.0454 8.35197 44.0595 8.35197 45.7536C8.35197 46.7097 7.9547 47.4248 7.16017 47.8988C6.36563 48.3701 5.24386 48.6058 3.79485 48.6058C2.43741 48.6058 1.30621 48.4119 0.401245 48.0241L0.768887 46.7838C1.70078 47.1824 2.68384 47.3817 3.71808 47.3817C5.91584 47.3817 7.01473 46.8323 7.01473 45.7334C7.01473 45.2055 6.79118 44.8082 6.34408 44.5416C5.89968 44.2776 5.15363 44.0877 4.10593 43.9719C1.64961 43.6999 0.421446 42.7815 0.421446 41.2167C0.421446 40.414 0.76754 39.7649 1.45973 39.2694C2.15191 38.7711 3.15653 38.522 4.47357 38.522C5.74213 38.522 6.86121 38.7092 7.83081 39.0835Z" fill="#C1C2D3"/>
<path id="Vector_2" d="M23.1101 39.9077C24.1309 40.8315 24.6413 42.0502 24.6413 43.5639C24.6413 45.0749 24.1309 46.2936 23.1101 47.2201C22.0893 48.1439 20.81 48.6058 19.2721 48.6058C17.7315 48.6058 16.4508 48.1439 15.4301 47.2201C14.4093 46.2936 13.8989 45.0749 13.8989 43.5639C13.8989 42.0502 14.4093 40.8315 15.4301 39.9077C16.4508 38.9839 17.7315 38.522 19.2721 38.522C20.81 38.522 22.0893 38.9839 23.1101 39.9077ZM16.4118 40.7521C15.6792 41.4631 15.3129 42.4004 15.3129 43.5639C15.3129 44.7274 15.6792 45.6647 16.4118 46.3757C17.1417 47.0868 18.0951 47.4423 19.2721 47.4423C20.4464 47.4423 21.3998 47.0868 22.1324 46.3757C22.8623 45.6647 23.2273 44.7274 23.2273 43.5639C23.2273 42.4004 22.8623 41.4631 22.1324 40.7521C21.3998 40.041 20.4464 39.6855 19.2721 39.6855C18.0951 39.6855 17.1417 40.041 16.4118 40.7521Z" fill="#C1C2D3"/>
<path id="Vector_3" d="M30.8669 47.6563V34.2556H32.2647V39.5117C33.3097 38.8518 34.5312 38.5219 35.929 38.5219C37.4669 38.5219 38.6493 38.9326 39.4761 39.7541C40.303 40.5728 40.7164 41.7848 40.7164 43.3901C40.7164 44.9657 40.1831 46.2288 39.1166 47.1796C38.05 48.1303 36.6764 48.6057 34.9958 48.6057C33.4336 48.6057 32.0573 48.2892 30.8669 47.6563ZM32.2647 40.7883V46.7837C33.0781 47.1715 33.9952 47.3654 35.016 47.3654C36.3222 47.3654 37.3632 47.0126 38.1389 46.3069C38.9146 45.6013 39.3024 44.6223 39.3024 43.3699C39.3024 42.1659 39.0021 41.2542 38.4015 40.6348C37.8009 40.0153 36.9188 39.7056 35.7553 39.7056C34.4625 39.7056 33.299 40.0665 32.2647 40.7883Z" fill="#C1C2D3"/>
<path id="Vector_4" d="M55.5715 39.9077C56.5923 40.8315 57.1027 42.0502 57.1027 43.5639C57.1027 45.0749 56.5923 46.2936 55.5715 47.2201C54.5507 48.1439 53.2714 48.6058 51.7335 48.6058C50.1956 48.6058 48.9149 48.1439 47.8915 47.2201C46.8707 46.2936 46.3603 45.0749 46.3603 43.5639C46.3603 42.0502 46.8707 40.8315 47.8915 39.9077C48.9149 38.9839 50.1956 38.522 51.7335 38.522C53.2714 38.522 54.5507 38.9839 55.5715 39.9077ZM48.8732 40.7521C48.1433 41.4631 47.7783 42.4004 47.7783 43.5639C47.7783 44.7274 48.1433 45.6647 48.8732 46.3757C49.6031 47.0868 50.5565 47.4423 51.7335 47.4423C52.9105 47.4423 53.8639 47.0868 54.5938 46.3757C55.3237 45.6647 55.6887 44.7274 55.6887 43.5639C55.6887 42.4004 55.3237 41.4631 54.5938 40.7521C53.8639 40.041 52.9105 39.6855 51.7335 39.6855C50.5565 39.6855 49.6031 40.041 48.8732 40.7521Z" fill="#C1C2D3"/>
<path id="Vector_5" d="M63.3283 45.4424V34.2556H64.7261V45.7535C64.7261 46.2706 64.8352 46.649 65.0534 46.8887C65.2742 47.1284 65.6567 47.2604 66.2007 47.2846V48.4885C66.0176 48.5155 65.8614 48.5289 65.7321 48.5289C64.1295 48.5289 63.3283 47.5001 63.3283 45.4424Z" fill="#C1C2D3"/>
</g>
<g id="Group_2">
<g id="Group_3">
<g id="Group_4">
<path id="Vector_6" d="M37.6991 21.2938C37.4235 21.2938 37.1492 21.1885 36.9398 20.9791C36.5198 20.5591 36.5198 19.8794 36.9398 19.4594L44.0388 12.3595L36.9398 5.25953C36.5198 4.83952 36.5198 4.15987 36.9398 3.73983C37.3598 3.31978 38.0395 3.31981 38.4595 3.73983L46.3187 11.599C46.7387 12.019 46.7387 12.6987 46.3187 13.1187L38.4595 20.9792C38.2489 21.1886 37.9746 21.2938 37.6991 21.2938Z" fill="#C1C2D3"/>
</g>
<g id="Group_5">
<path id="Vector_7" d="M25.7864 21.2939C25.5109 21.2939 25.2366 21.1886 25.0272 20.9792L17.1668 13.1187C16.7467 12.6987 16.7467 12.0191 17.1668 11.599L25.026 3.73982C25.446 3.3198 26.1256 3.3198 26.5457 3.73982C26.9657 4.15983 26.9657 4.83948 26.5457 5.25952L19.4467 12.3594L26.5457 19.4594C26.9657 19.8794 26.9657 20.559 26.5457 20.9791C26.3363 21.1885 26.0607 21.2939 25.7864 21.2939Z" fill="#C1C2D3"/>
</g>
<g id="Group_6">
<path id="Vector_8" d="M27.8376 24.1716C27.7151 24.1716 27.5915 24.1508 27.4702 24.1067C26.9131 23.9034 26.6253 23.2875 26.8273 22.7291L34.6363 1.25377C34.8384 0.695381 35.4544 0.40882 36.014 0.610865C36.5711 0.814144 36.8589 1.43011 36.6569 1.9885L28.8478 23.4651C28.6887 23.901 28.2772 24.1716 27.8376 24.1716Z" fill="#C1C2D3"/>
</g>
</g>
</g>
</g>
<defs>
<clipPath id="clip0_46036_115">
<rect width="67" height="49" fill="white"/>
</clipPath>
</defs>
</svg>
