<svg width="180" height="25" viewBox="0 0 180 25" fill="none" xmlns="http://www.w3.org/2000/svg">
<g clip-path="url(#clip0_46036_3)">
<path d="M59.1207 12.4399C59.8726 12.4399 60.4614 12.4026 60.887 12.3282C61.3126 12.2501 61.6335 12.1526 61.8499 12.0356C62.0662 11.915 62.2028 11.782 62.2595 11.6366C62.3127 11.4911 62.3393 11.3546 62.3393 11.2269C62.3393 10.9787 62.2808 10.78 62.1638 10.6311C62.0467 10.4857 61.8587 10.3722 61.5998 10.2906C61.3409 10.2055 60.9987 10.1452 60.5731 10.1097C60.1475 10.0743 59.635 10.0494 59.0356 10.0352C58.688 10.0211 58.2784 10.0015 57.8067 9.97672C57.3314 9.94835 56.842 9.88805 56.3384 9.79584C55.8383 9.70717 55.3435 9.57595 54.8541 9.40216C54.3682 9.22483 53.9337 8.98011 53.5507 8.668C53.1676 8.35589 52.8573 7.96221 52.6197 7.48696C52.3821 7.01171 52.2632 6.4336 52.2632 5.75264V5.48132C52.2632 4.88193 52.3714 4.3056 52.5878 3.75232C52.8041 3.20259 53.173 2.71847 53.6943 2.29996C54.2192 1.88145 54.9232 1.55161 55.8064 1.31044C56.693 1.06572 57.7978 0.943359 59.1207 0.943359H59.8762C60.8373 0.943359 61.7701 1.00188 62.6745 1.11892C63.5824 1.23951 64.4673 1.41152 65.3292 1.63496V5.08232C64.3113 4.84469 63.304 4.65672 62.3074 4.5184C61.3108 4.38008 60.2982 4.31092 59.2697 4.31092C58.5142 4.31092 57.9219 4.34816 57.4928 4.42264C57.0601 4.50067 56.7356 4.5982 56.5192 4.71524C56.3029 4.83583 56.1663 4.96173 56.1096 5.09296C56.0529 5.22419 56.0245 5.35364 56.0245 5.48132C56.0245 5.72959 56.0848 5.93175 56.2054 6.0878C56.3224 6.24031 56.5139 6.35735 56.7799 6.43892C57.0459 6.52404 57.3882 6.58433 57.8067 6.6198C58.2216 6.65527 58.7235 6.68009 59.3122 6.69428C59.6456 6.70847 60.0429 6.72443 60.5039 6.74216C60.9614 6.76344 61.4456 6.82019 61.9563 6.9124C62.4635 7.00107 62.9653 7.13761 63.4618 7.32204C63.9548 7.50292 64.3964 7.74941 64.7865 8.06152C65.1767 8.37363 65.4941 8.77085 65.7388 9.2532C65.9835 9.73555 66.1059 10.3172 66.1059 10.9982V11.2695C66.1059 11.8689 65.9977 12.4417 65.7814 12.9878C65.565 13.5305 65.1926 14.0111 64.6642 14.4296C64.1322 14.8481 63.4281 15.1779 62.5521 15.4191C61.6725 15.6638 60.5642 15.7862 59.2271 15.7862H58.4717C57.3722 15.7862 56.3029 15.7276 55.2637 15.6106C54.2245 15.49 53.2031 15.3251 52.1994 15.1158V11.6046C53.3308 11.8565 54.4994 12.0586 55.7053 12.2111C56.9111 12.3636 58.0496 12.4399 59.1207 12.4399Z" fill="white"/>
<path d="M68.5531 8.9074V7.82212C68.5531 6.87516 68.6701 5.98317 68.9042 5.14616C69.1418 4.30915 69.5568 3.58031 70.1491 2.95964C70.7414 2.33897 71.5394 1.84776 72.5431 1.486C73.5468 1.12424 74.8094 0.943359 76.3309 0.943359H77.081C78.599 0.943359 79.8598 1.12424 80.8636 1.486C81.8673 1.84776 82.6653 2.33897 83.2576 2.95964C83.8498 3.58031 84.2648 4.30915 84.5024 5.14616C84.7401 5.98317 84.8589 6.87516 84.8589 7.82212V8.9074C84.8589 9.85436 84.7401 10.7463 84.5024 11.5834C84.2648 12.4204 83.8498 13.1492 83.2576 13.7699C82.6653 14.3905 81.8673 14.8818 80.8636 15.2435C79.8598 15.6053 78.599 15.7862 77.081 15.7862H76.3309C74.8094 15.7862 73.5468 15.6053 72.5431 15.2435C71.5394 14.8818 70.7414 14.3905 70.1491 13.7699C69.5568 13.1492 69.1418 12.4204 68.9042 11.5834C68.6701 10.7463 68.5531 9.85436 68.5531 8.9074ZM72.3143 8.36476C72.3143 8.89321 72.3391 9.40571 72.3888 9.90224C72.4349 10.3952 72.5945 10.8315 72.8676 11.211C73.1407 11.5869 73.5734 11.8848 74.1657 12.1047C74.758 12.3282 75.6038 12.4399 76.7033 12.4399C77.8063 12.4399 78.654 12.3282 79.2463 12.1047C79.8386 11.8848 80.2695 11.5869 80.539 11.211C80.8121 10.8315 80.9735 10.3952 81.0231 9.90224C81.0728 9.40571 81.0976 8.89321 81.0976 8.36476C81.0976 7.83631 81.0728 7.32736 81.0231 6.83792C80.9735 6.35203 80.8121 5.91933 80.539 5.53984C80.2695 5.16389 79.8386 4.8642 79.2463 4.64076C78.654 4.42087 77.8063 4.31092 76.7033 4.31092C75.6038 4.31092 74.758 4.42087 74.1657 4.64076C73.5734 4.8642 73.1407 5.16389 72.8676 5.53984C72.5945 5.91933 72.4349 6.35203 72.3888 6.83792C72.3391 7.32736 72.3143 7.83631 72.3143 8.36476Z" fill="white"/>
<path d="M87.5774 15.3712V1.35832C88.7762 1.22 90.0335 1.11715 91.3493 1.04976C92.6686 0.978826 93.9614 0.943359 95.2276 0.943359H95.8128C96.9832 0.943359 97.9532 1.05508 98.7228 1.27852C99.4889 1.50196 100.101 1.80165 100.558 2.1776C101.019 2.55355 101.34 2.99511 101.521 3.50228C101.702 4.013 101.792 4.55387 101.792 5.12488V5.53984C101.792 6.15341 101.612 6.71201 101.25 7.21564C100.888 7.71572 100.241 8.09167 99.308 8.34348C99.8506 8.46761 100.31 8.62721 100.686 8.82228C101.062 9.02089 101.362 9.24433 101.585 9.4926C101.808 9.74441 101.968 10.014 102.064 10.3012C102.163 10.585 102.213 10.8811 102.213 11.1897V11.6046C102.213 12.1757 102.115 12.7165 101.92 13.2272C101.725 13.7344 101.383 14.176 100.893 14.5519C100.407 14.9279 99.7531 15.2276 98.9303 15.451C98.1074 15.6744 97.0683 15.7862 95.8128 15.7862H95.2276C93.9614 15.7862 92.6686 15.7525 91.3493 15.6851C90.0335 15.6141 88.7762 15.5095 87.5774 15.3712ZM95.3127 4.28964C94.7984 4.28964 94.1813 4.30383 93.4613 4.3322C92.7449 4.35703 92.0373 4.40491 91.3386 4.47584V6.79536H95.0626C95.9138 6.79536 96.5682 6.76521 97.0257 6.70492C97.4868 6.64108 97.8219 6.55241 98.0312 6.43892C98.2404 6.32897 98.3628 6.19775 98.3983 6.04524C98.4302 5.89273 98.4462 5.72427 98.4462 5.53984C98.4462 5.37315 98.4266 5.21355 98.3876 5.06104C98.3451 4.90853 98.2227 4.77199 98.0206 4.6514C97.8184 4.53436 97.5045 4.44392 97.0789 4.38008C96.6533 4.31979 96.0646 4.28964 95.3127 4.28964ZM95.0626 10.1416H91.3386V12.2537C92.0373 12.3246 92.7449 12.3743 93.4613 12.4026C94.1813 12.4275 94.8197 12.4399 95.3765 12.4399C96.2135 12.4399 96.8643 12.4097 97.329 12.3494C97.7971 12.2856 98.1465 12.1952 98.377 12.0781C98.6075 11.9575 98.7458 11.821 98.792 11.6685C98.8416 11.516 98.8664 11.3564 98.8664 11.1897C98.8664 11.0478 98.8452 10.9113 98.8026 10.78C98.76 10.6488 98.6217 10.5371 98.3876 10.4449C98.15 10.3562 97.7723 10.2835 97.2545 10.2268C96.7402 10.17 96.0096 10.1416 95.0626 10.1416Z" fill="white"/>
<path d="M104.617 8.9074V7.82212C104.617 6.87516 104.736 5.98317 104.974 5.14616C105.208 4.30915 105.621 3.58031 106.213 2.95964C106.806 2.33897 107.604 1.84776 108.607 1.486C109.611 1.12424 110.874 0.943359 112.395 0.943359H113.145C114.667 0.943359 115.929 1.12424 116.933 1.486C117.937 1.84776 118.735 2.33897 119.327 2.95964C119.919 3.58031 120.333 4.30915 120.567 5.14616C120.804 5.98317 120.923 6.87516 120.923 7.82212V8.9074C120.923 9.85436 120.804 10.7463 120.567 11.5834C120.333 12.4204 119.919 13.1492 119.327 13.7699C118.735 14.3905 117.937 14.8818 116.933 15.2435C115.929 15.6053 114.667 15.7862 113.145 15.7862H112.395C110.874 15.7862 109.611 15.6053 108.607 15.2435C107.604 14.8818 106.806 14.3905 106.213 13.7699C105.621 13.1492 105.208 12.4204 104.974 11.5834C104.736 10.7463 104.617 9.85436 104.617 8.9074ZM108.379 8.36476C108.379 8.89321 108.403 9.40571 108.453 9.90224C108.503 10.3952 108.662 10.8315 108.932 11.211C109.205 11.5869 109.638 11.8848 110.23 12.1047C110.822 12.3282 111.67 12.4399 112.773 12.4399C113.872 12.4399 114.718 12.3282 115.311 12.1047C115.903 11.8848 116.336 11.5869 116.609 11.211C116.878 10.8315 117.038 10.3952 117.087 9.90224C117.137 9.40571 117.162 8.89321 117.162 8.36476C117.162 7.83631 117.137 7.32736 117.087 6.83792C117.038 6.35203 116.878 5.91933 116.609 5.53984C116.336 5.16389 115.903 4.8642 115.311 4.64076C114.718 4.42087 113.872 4.31092 112.773 4.31092C111.67 4.31092 110.822 4.42087 110.23 4.64076C109.638 4.8642 109.205 5.16389 108.932 5.53984C108.662 5.91933 108.503 6.35203 108.453 6.83792C108.403 7.32736 108.379 7.83631 108.379 8.36476Z" fill="white"/>
<path d="M137.043 15.3713H123.642V1.3584H127.408V12.025H137.043V15.3713Z" fill="white"/>
<path d="M177.759 21.354H53.9696C53.0791 21.354 52.4854 21.8988 52.4854 22.7159C52.4854 23.5331 53.0791 24.0778 53.9696 24.0778H177.61C178.501 24.0778 179.094 23.5331 179.094 22.7159C179.094 21.8988 178.501 21.354 177.759 21.354Z" fill="white"/>
<path d="M11.8058 12.3047C12.3369 12.3047 12.7675 11.8742 12.7675 11.343C12.7675 10.8119 12.3369 10.3813 11.8058 10.3813C11.2747 10.3813 10.8441 10.8119 10.8441 11.343C10.8441 11.8742 11.2747 12.3047 11.8058 12.3047Z" fill="white"/>
<path d="M19.1879 12.3047C19.7191 12.3047 20.1496 11.8742 20.1496 11.343C20.1496 10.8119 19.7191 10.3813 19.1879 10.3813C18.6568 10.3813 18.2263 10.8119 18.2263 11.343C18.2263 11.8742 18.6568 12.3047 19.1879 12.3047Z" fill="white"/>
<path d="M26.5701 12.3047C27.1012 12.3047 27.5318 11.8742 27.5318 11.343C27.5318 10.8119 27.1012 10.3813 26.5701 10.3813C26.039 10.3813 25.6084 10.8119 25.6084 11.343C25.6084 11.8742 26.039 12.3047 26.5701 12.3047Z" fill="white"/>
<path d="M7.44734 18.9244C7.63517 19.1122 7.88122 19.2061 8.12728 19.2061C8.37334 19.2061 8.61939 19.1122 8.80722 18.9244C9.18288 18.5487 9.18288 17.9402 8.80722 17.5645L2.56049 11.3173L8.80722 5.07058C9.18288 4.69492 9.18288 4.08636 8.80722 3.7107C8.43156 3.33504 7.823 3.33504 7.44734 3.7107L0.520666 10.6374C0.145007 11.013 0.145007 11.6216 0.520666 11.9973L7.44734 18.9244Z" fill="white"/>
<path d="M30.0493 18.9244C30.2372 19.1122 30.4832 19.2061 30.7293 19.2061C30.9753 19.2061 31.2214 19.1122 31.4092 18.9244L38.3363 11.9973C38.5167 11.8169 38.6181 11.5723 38.6181 11.3173C38.6181 11.0623 38.5167 10.8177 38.3363 10.6374L31.4092 3.7107C31.0335 3.33504 30.425 3.33504 30.0493 3.7107C29.6737 4.08636 29.6737 4.69492 30.0493 5.07058L36.2965 11.3173L30.0493 17.5645C29.6737 17.9402 29.6737 18.5487 30.0493 18.9244Z" fill="white"/>
</g>
<defs>
<clipPath id="clip0_46036_3">
<rect width="180" height="25" fill="white"/>
</clipPath>
</defs>
</svg>
