<svg width="65" height="94" viewBox="0 0 65 94" fill="none" xmlns="http://www.w3.org/2000/svg">
<g id="Group 11">
<g id="Group">
<path id="Vector" d="M8.52832 82.4528L7.97152 83.7891C6.96309 83.3746 5.85723 83.1674 4.65392 83.1674C2.60613 83.1674 1.58224 83.7164 1.58224 84.8146C1.58224 85.3776 1.83435 85.7812 2.33856 86.0256C2.84277 86.2731 3.65941 86.4711 4.78848 86.6195C7.68384 87.0031 9.13152 88.1678 9.13152 90.1135C9.13152 91.2116 8.67525 92.0329 7.76272 92.5773C6.84709 93.1186 5.55872 93.3893 3.8976 93.3893C2.33856 93.3893 1.03936 93.1666 0 92.7211L0.42224 91.2967C1.49253 91.7545 2.6216 91.9834 3.80944 91.9834C6.3336 91.9834 7.59568 91.3523 7.59568 90.0903C7.59568 89.484 7.33893 89.0277 6.82544 88.7215C6.31195 88.4183 5.45509 88.2002 4.25488 88.0672C1.43376 87.7548 0.0232014 86.7 0.0232014 84.9027C0.0232014 83.9809 0.419147 83.2354 1.21104 82.6663C2.00603 82.094 3.16139 81.8079 4.67712 81.8079C6.13099 81.8079 7.41472 82.0228 8.52832 82.4528Z" fill="white"/>
<path id="Vector_2" d="M21.1584 83.3994C22.3308 84.4604 22.917 85.8601 22.917 87.5986C22.917 89.3339 22.3308 90.7337 21.1584 91.7978C19.986 92.8588 18.5151 93.3893 16.7458 93.3893C14.9795 93.3893 13.5101 92.8588 12.3378 91.7978C11.1654 90.7337 10.5792 89.3339 10.5792 87.5986C10.5792 85.8601 11.1654 84.4604 12.3378 83.3994C13.5101 82.3384 14.9795 81.8079 16.7458 81.8079C18.5151 81.8079 19.986 82.3384 21.1584 83.3994ZM13.4606 84.3691C12.6223 85.1858 12.2032 86.2623 12.2032 87.5986C12.2032 88.9349 12.6223 90.0114 13.4606 90.828C14.302 91.6447 15.3971 92.053 16.7458 92.053C18.0975 92.053 19.1926 91.6447 20.0309 90.828C20.8723 90.0114 21.293 88.9349 21.293 87.5986C21.293 86.2623 20.8723 85.1858 20.0309 84.3691C19.1926 83.5525 18.0975 83.1442 16.7458 83.1442C15.3971 83.1442 14.302 83.5525 13.4606 84.3691Z" fill="white"/>
<path id="Vector_3" d="M25.1442 92.2988V76.908H26.7496V82.9446C27.9498 82.1867 29.3526 81.8078 30.9581 81.8078C32.7244 81.8078 34.0824 82.2795 35.032 83.223C35.9817 84.1634 36.4565 85.5554 36.4565 87.399C36.4565 89.2086 35.844 90.6594 34.619 91.7513C33.3941 92.8433 31.8165 93.3892 29.8862 93.3892C28.0921 93.3892 26.5114 93.0258 25.1442 92.2988ZM26.7496 84.4108V91.2966C27.6838 91.742 28.7371 91.9648 29.9094 91.9648C31.4097 91.9648 32.6053 91.5595 33.4962 90.7491C34.387 89.9386 34.8325 88.8142 34.8325 87.3758C34.8325 85.9931 34.4876 84.946 33.7978 84.2345C33.108 83.5231 32.0949 83.1673 30.7586 83.1673C29.2738 83.1673 27.9374 83.5818 26.7496 84.4108Z" fill="white"/>
<path id="Vector_4" d="M48.5947 83.3994C49.7702 84.4604 50.3579 85.8601 50.3579 87.5986C50.3579 89.3339 49.7702 90.7337 48.5947 91.7978C47.4224 92.8588 45.953 93.3893 44.1867 93.3893C42.4204 93.3893 40.9511 92.8588 39.7787 91.7978C38.6033 90.7337 38.0155 89.3339 38.0155 87.5986C38.0155 85.8601 38.6033 84.4604 39.7787 83.3994C40.9511 82.3384 42.4204 81.8079 44.1867 81.8079C45.953 81.8079 47.4224 82.3384 48.5947 83.3994ZM40.9016 84.3691C40.0633 85.1858 39.6442 86.2623 39.6442 87.5986C39.6442 88.9349 40.0633 90.0114 40.9016 90.828C41.7399 91.6447 42.8349 92.053 44.1867 92.053C45.5385 92.053 46.6336 91.6447 47.4719 90.828C48.3101 90.0114 48.7293 88.9349 48.7293 87.5986C48.7293 86.2623 48.3101 85.1858 47.4719 84.3691C46.6336 83.5525 45.5385 83.1442 44.1867 83.1442C42.8349 83.1442 41.7399 83.5525 40.9016 84.3691Z" fill="white"/>
<path id="Vector_5" d="M52.5851 89.7561V76.908H54.1859V90.1134C54.1859 90.7073 54.3127 91.1419 54.5664 91.4172C54.817 91.6925 55.2547 91.8441 55.8795 91.872V93.2547C55.6723 93.2856 55.4944 93.3011 55.3459 93.3011C53.5054 93.3011 52.5851 92.1194 52.5851 89.7561Z" fill="white"/>
</g>
<g id="Group_2">
<path id="Vector_6" fill-rule="evenodd" clip-rule="evenodd" d="M23.3806 6.77165C23.4057 3.41782 25.9183 0.581069 29.2721 0.170167C29.2917 0.167372 29.3141 0.167372 29.3364 0.164577C31.7819 -0.061809 34.247 -0.061809 36.6866 0.209295C36.695 0.21209 36.7034 0.21209 36.7117 0.21209C40.0041 0.61455 42.4803 3.36752 42.5642 6.63191C42.5977 6.81358 42.6089 6.99524 42.6033 7.1797C42.581 8.08522 43.1092 8.91253 43.9365 9.27865C45.5603 9.97457 47.1003 10.8605 48.534 11.8946C48.5424 11.8974 48.548 11.903 48.5564 11.9058C49.2719 12.434 50.2417 12.4759 51.0047 12.012C51.1193 11.9393 51.2423 11.8806 51.3708 11.8303C54.2914 10.1786 58.003 10.9332 60.0318 13.633C60.0457 13.6497 60.0597 13.6693 60.0709 13.6861C61.4907 15.69 62.7204 17.8253 63.707 20.0751C63.7126 20.0807 63.7154 20.0891 63.7182 20.0975C65.015 23.1495 63.8691 26.671 61.0882 28.3785C60.9428 28.4959 60.7919 28.5965 60.6298 28.6832C59.8361 29.1192 59.3805 29.9883 59.4783 30.8883C59.6879 32.6434 59.6907 34.4182 59.5147 36.1761C59.5119 36.1873 59.5119 36.1929 59.5119 36.2013C59.414 37.0873 59.8612 37.9453 60.6438 38.3757C60.7639 38.44 60.8785 38.5155 60.9847 38.6021C63.8774 40.3042 65.0764 43.8955 63.7572 47.0062C63.7488 47.0257 63.7377 47.0453 63.7293 47.0649C62.7036 49.298 61.4682 51.4305 60.0149 53.4092C60.0093 53.4148 60.0037 53.4232 60.0009 53.4288C58.0054 56.0755 54.3832 56.8469 51.5132 55.2902C51.3399 55.2259 51.1778 55.142 51.0213 55.047C50.2471 54.5775 49.2661 54.6194 48.5366 55.1532C47.1196 56.2125 45.5824 57.1013 43.9726 57.8307C43.9642 57.8307 43.9586 57.8335 43.9502 57.8391C43.1342 58.1996 42.6143 59.0157 42.6367 59.9073C42.6395 60.0442 42.6311 60.1784 42.6087 60.3153C42.5808 63.6692 40.071 66.5059 36.7171 66.9168C36.6948 66.9196 36.6724 66.9196 36.6501 66.9224C34.2045 67.1488 31.7423 67.1488 29.2999 66.8777C29.2943 66.8749 29.2831 66.8749 29.2748 66.8749C25.9852 66.4724 23.5062 63.7195 23.4223 60.4551C23.3916 60.2734 23.3804 60.0917 23.3832 59.9073C23.4055 59.0018 22.8773 58.1744 22.05 57.8083C20.4262 57.1124 18.8862 56.2265 17.4525 55.1924C17.4441 55.1896 17.4385 55.184 17.4329 55.1812C16.7146 54.653 15.7448 54.611 14.9846 55.075C14.8672 55.1477 14.7442 55.2063 14.6157 55.2567C11.6978 56.9084 7.98627 56.1538 5.95472 53.454C5.94075 53.4372 5.92957 53.4177 5.91559 53.4009C4.49579 51.397 3.26608 49.2617 2.2795 47.0118C2.27391 47.0063 2.27391 46.9979 2.26832 46.9895C0.971508 43.9375 2.1174 40.416 4.90109 38.7085C5.04363 38.5911 5.19455 38.4905 5.35944 38.4038C6.1532 37.9678 6.60596 37.0986 6.50815 36.1987C6.29854 34.4436 6.29854 32.6688 6.47182 30.9108C6.47461 30.8997 6.47461 30.8941 6.47461 30.8857C6.57244 29.9997 6.12526 29.1417 5.34272 28.7113C5.22254 28.647 5.10795 28.5715 5.00175 28.4849C2.10905 26.7828 0.910038 23.1914 2.22925 20.0808C2.24043 20.0612 2.24881 20.0417 2.2572 20.0221C3.28291 17.789 4.51827 15.6565 5.97156 13.6778C5.97715 13.6722 5.98274 13.6638 5.98553 13.6582C7.98109 11.0115 11.6032 10.2401 14.4733 11.7968C14.6466 11.8611 14.8087 11.9449 14.9652 12.04C15.7394 12.5095 16.7204 12.4676 17.4499 11.9337C18.8669 10.8745 20.404 9.9857 22.0167 9.25626C22.0223 9.25626 22.0279 9.25347 22.0362 9.24788C22.8523 8.88734 23.3722 8.07126 23.3498 7.1797C23.347 7.04275 23.3582 6.9086 23.3806 6.77165ZM7.71789 42.2046C7.60609 42.2996 7.48312 42.3806 7.35176 42.4533C6.36518 42.9955 5.94312 44.1945 6.38192 45.2314C7.23993 47.1878 8.31037 49.0408 9.55967 50.8072C10.2584 51.6904 11.5077 51.9167 12.4775 51.327C12.6228 51.2376 12.7737 51.1593 12.9247 51.1006C15.1829 49.8653 17.9638 50.0358 20.06 51.5618C21.2366 52.4086 22.4971 53.1353 23.8274 53.7054C23.8358 53.7082 23.8414 53.711 23.8498 53.7166C26.2618 54.7759 27.8213 57.1459 27.8549 59.7647C27.8828 59.91 27.894 60.0553 27.8884 60.2035C27.8632 61.3298 28.6933 62.294 29.8113 62.4366C31.9325 62.6685 34.0734 62.6685 36.2254 62.4701C37.3434 62.3052 38.1622 61.3354 38.1371 60.2034C38.1315 60.033 38.1399 59.8625 38.1651 59.706C38.2238 57.1291 39.761 54.8038 42.131 53.7529C43.453 53.1576 44.7107 52.4309 45.8733 51.5618C45.8789 51.559 45.8845 51.5534 45.8901 51.5478C48.0142 49.991 50.8482 49.8233 53.1344 51.1034C53.2713 51.1537 53.4055 51.218 53.5313 51.2934C54.4927 51.8804 55.7448 51.6428 56.424 50.7457C57.6872 49.0241 58.7549 47.171 59.6604 45.2062C60.0768 44.1582 59.6464 42.962 58.6543 42.4198C58.5033 42.3359 58.3608 42.2465 58.235 42.1459C56.0355 40.8071 54.7918 38.3113 55.0629 35.7345C55.2082 34.2924 55.2082 32.839 55.0377 31.3997C55.0377 31.3913 55.0349 31.3829 55.0349 31.3773C54.7471 28.7585 56.0187 26.2208 58.2713 24.8821C58.3831 24.7871 58.5061 24.706 58.6347 24.6333C59.624 24.0911 60.0433 22.8921 59.6045 21.8553C58.7465 19.8988 57.6789 18.0459 56.4268 16.2795C55.728 15.3963 54.4787 15.1699 53.5089 15.7596C53.3636 15.8491 53.2127 15.9273 53.0618 15.986C50.8036 17.2214 48.0226 17.0509 45.9292 15.5249C44.7498 14.678 43.4922 13.9514 42.159 13.3812C42.1506 13.3784 42.145 13.3756 42.1394 13.37C39.7247 12.3108 38.1651 9.94072 38.1316 7.32198C38.1036 7.17665 38.0925 7.03131 38.098 6.88319C38.126 5.75687 37.2931 4.79261 36.1752 4.65009C34.0567 4.41811 31.913 4.41811 29.761 4.61655C28.6459 4.78145 27.8242 5.75124 27.8521 6.8832C27.8549 7.05369 27.8465 7.22417 27.8214 7.38069C27.7627 9.95757 26.2255 12.2829 23.8554 13.3337C22.5334 13.929 21.2758 14.6557 20.1159 15.5249C20.1075 15.5277 20.1047 15.5333 20.0963 15.5389C17.9722 17.0956 15.141 17.2633 12.852 15.9833C12.7151 15.9329 12.5809 15.8687 12.458 15.7932C11.4937 15.2063 10.2444 15.4438 9.56247 16.341C8.29922 18.0626 7.23157 19.9156 6.32605 21.8804C5.90962 22.9285 6.34003 24.1247 7.33217 24.6669C7.48309 24.7507 7.62842 24.8402 7.7514 24.9408C9.95373 26.2795 11.1947 28.7753 10.9236 31.3521C10.7782 32.7943 10.7782 34.2476 10.9487 35.687C10.9487 35.6954 10.9515 35.7038 10.9515 35.7093C11.2394 38.3282 9.96773 40.8658 7.71789 42.2046ZM45.3817 33.5379L35.9266 24.6251C35.0294 23.7783 34.9875 22.3613 35.8343 21.4641C36.6812 20.567 38.0954 20.525 38.9953 21.3719L48.4476 30.2847C49.3447 31.1287 49.8534 32.3081 49.8534 33.5379C49.8534 34.7677 49.3447 35.9471 48.4476 36.7911L38.9953 45.7039C38.0954 46.5508 36.6812 46.5088 35.8343 45.6117C34.9875 44.7146 35.0294 43.2975 35.9266 42.4507L45.3817 33.5379ZM20.5966 33.5379L30.0517 42.4507C30.9489 43.2976 30.9908 44.7146 30.144 45.6117C29.2971 46.5089 27.8801 46.5508 26.983 45.7039L17.5278 36.7912C16.6335 35.9471 16.1248 34.7677 16.1248 33.5379C16.1248 32.3081 16.6335 31.1287 17.5278 30.2847L26.983 21.3719C27.8801 20.5251 29.2971 20.567 30.144 21.4641C30.9908 22.3613 30.9489 23.7783 30.0517 24.6251L20.5966 33.5379Z" fill="white"/>
</g>
</g>
</svg>
