<?xml version="1.0" encoding="UTF-8" standalone="no" ?>
<!DOCTYPE svg PUBLIC "-//W3C//DTD SVG 1.1//EN" "http://www.w3.org/Graphics/SVG/1.1/DTD/svg11.dtd">
<svg xmlns="http://www.w3.org/2000/svg" xmlns:xlink="http://www.w3.org/1999/xlink" version="1.1" width="500" height="500" viewBox="0 0 500 500" xml:space="preserve">
<desc>Created with Fabric.js 3.6.3</desc>
<defs>
</defs>
<g transform="matrix(1 0 0 1 318.58595685399746 243.98676000000003)" style=""  ><path fill="#ffffff" opacity="1" d="M-124.75 6.84L-124.75 6.84Q-122.63 6.84-121.43 6.63Q-120.23 6.41-119.62 6.08Q-119.01 5.74-118.85 5.33Q-118.70 4.92-118.70 4.56L-118.70 4.56Q-118.70 3.86-119.03 3.44Q-119.36 3.03-120.09 2.80Q-120.82 2.56-122.02 2.46Q-123.22 2.36-124.91 2.32L-124.91 2.32Q-125.89 2.28-127.22 2.21Q-128.56 2.13-129.98 1.87Q-131.39 1.62-132.77 1.13Q-134.14 0.63-135.22-0.25Q-136.30-1.13-136.97-2.47Q-137.64-3.81-137.64-5.73L-137.64-5.73L-137.64-6.24Q-137.64-7.93-137.03-9.49Q-136.42-11.04-134.95-12.22Q-133.47-13.40-130.98-14.08Q-128.48-14.77-124.75-14.77L-124.75-14.77L-123.33-14.77Q-120.62-14.77-118.07-14.44Q-115.51-14.10-113.08-13.47L-113.08-13.47L-113.08-6.99Q-115.95-7.66-118.76-8.05Q-121.57-8.44-124.47-8.44L-124.47-8.44Q-126.60-8.44-127.81-8.23Q-129.03-8.01-129.64-7.68Q-130.25-7.34-130.41-6.97Q-130.57-6.60-130.57-6.24L-130.57-6.24Q-130.57-5.54-130.23-5.10Q-129.90-4.67-129.15-4.44Q-128.40-4.20-127.22-4.10Q-126.05-4.00-124.39-3.96L-124.39-3.96Q-123.45-3.92-122.15-3.87Q-120.86-3.81-119.42-3.55Q-117.99-3.30-116.59-2.78Q-115.20-2.27-114.10-1.39Q-113.00-0.51-112.31 0.85Q-111.62 2.21-111.62 4.13L-111.62 4.13L-111.62 4.64Q-111.62 6.33-112.23 7.87Q-112.84 9.40-114.33 10.58Q-115.83 11.76-118.30 12.44Q-120.78 13.13-124.55 13.13L-124.55 13.13L-125.97 13.13Q-129.07 13.13-132.00 12.80Q-134.93 12.46-137.76 11.87L-137.76 11.87L-137.76 5.27Q-134.57 5.98-131.17 6.41Q-127.77 6.84-124.75 6.84Z"/><path fill="#ffffff" opacity="1" d="M-107.02 0.20L-107.02-1.84Q-107.02-4.51-106.36-6.87Q-105.69-9.23-104.02-10.98Q-102.35-12.73-99.52-13.75Q-96.69-14.77-92.40-14.77L-92.40-14.77L-90.99-14.77Q-86.71-14.77-83.88-13.75Q-81.05-12.73-79.38-10.98Q-77.71-9.23-77.04-6.87Q-76.37-4.51-76.37-1.84L-76.37-1.84L-76.37 0.20Q-76.37 2.87-77.04 5.23Q-77.71 7.59-79.38 9.34Q-81.05 11.09-83.88 12.11Q-86.71 13.13-90.99 13.13L-90.99 13.13L-92.40 13.13Q-96.69 13.13-99.52 12.11Q-102.35 11.09-104.02 9.34Q-105.69 7.59-106.36 5.23Q-107.02 2.87-107.02 0.20L-107.02 0.20ZM-99.95-0.82L-99.95-0.82Q-99.95 0.67-99.81 2.07Q-99.68 3.46-98.91 4.53Q-98.14 5.59-96.47 6.21Q-94.80 6.84-91.70 6.84L-91.70 6.84Q-88.59 6.84-86.92 6.21Q-85.25 5.59-84.49 4.53Q-83.72 3.46-83.58 2.07Q-83.44 0.67-83.44-0.82L-83.44-0.82Q-83.44-2.31-83.58-3.69Q-83.72-5.06-84.49-6.13Q-85.25-7.19-86.92-7.82Q-88.59-8.44-91.70-8.44L-91.70-8.44Q-94.80-8.44-96.47-7.82Q-98.14-7.19-98.91-6.13Q-99.68-5.06-99.81-3.69Q-99.95-2.31-99.95-0.82Z"/><path fill="#ffffff" opacity="1" d="M-71.26 12.35L-71.26-13.99Q-67.88-14.38-64.17-14.57Q-60.45-14.77-56.88-14.77L-56.88-14.77L-55.78-14.77Q-52.48-14.77-50.31-14.14Q-48.15-13.51-46.86-12.45Q-45.56-11.39-45.05-9.96Q-44.54-8.52-44.54-6.91L-44.54-6.91L-44.54-6.13Q-44.54-4.40-45.56-2.98Q-46.58-1.57-49.21-0.86L-49.21-0.86Q-47.68-0.51-46.62 0.04Q-45.56 0.60-44.93 1.30Q-44.30 2.01-44.03 2.82Q-43.75 3.62-43.75 4.49L-43.75 4.49L-43.75 5.27Q-43.75 6.88-44.30 8.32Q-44.85 9.75-46.23 10.81Q-47.60 11.87-49.92 12.50Q-52.24 13.13-55.78 13.13L-55.78 13.13L-56.88 13.13Q-60.45 13.13-64.17 12.94Q-67.88 12.74-71.26 12.35L-71.26 12.35ZM-56.72-8.48L-56.72-8.48Q-58.17-8.48-60.20-8.40Q-62.22-8.33-64.19-8.13L-64.19-8.13L-64.19-3.77L-57.19-3.77Q-54.79-3.77-53.50-3.94Q-52.20-4.12-51.61-4.44Q-51.02-4.75-50.92-5.18Q-50.83-5.61-50.83-6.13L-50.83-6.13Q-50.83-6.60-50.94-7.03Q-51.06-7.46-51.63-7.80Q-52.20-8.13-53.40-8.31Q-54.60-8.48-56.72-8.48ZM-57.19 2.52L-64.19 2.52L-64.19 6.49Q-62.22 6.69-60.20 6.77Q-58.17 6.84-56.60 6.84L-56.60 6.84Q-54.24 6.84-52.93 6.67Q-51.61 6.49-50.96 6.16Q-50.31 5.82-50.18 5.39Q-50.04 4.96-50.04 4.49L-50.04 4.49Q-50.04 4.09-50.16 3.72Q-50.28 3.35-50.94 3.09Q-51.61 2.84-53.07 2.68Q-54.52 2.52-57.19 2.52L-57.19 2.52Z"/><path fill="#ffffff" opacity="1" d="M-39.23 0.20L-39.23-1.84Q-39.23-4.51-38.56-6.87Q-37.90-9.23-36.23-10.98Q-34.56-12.73-31.73-13.75Q-28.90-14.77-24.61-14.77L-24.61-14.77L-23.20-14.77Q-18.91-14.77-16.08-13.75Q-13.25-12.73-11.58-10.98Q-9.91-9.23-9.25-6.87Q-8.58-4.51-8.58-1.84L-8.58-1.84L-8.58 0.20Q-8.58 2.87-9.25 5.23Q-9.91 7.59-11.58 9.34Q-13.25 11.09-16.08 12.11Q-18.91 13.13-23.20 13.13L-23.20 13.13L-24.61 13.13Q-28.90 13.13-31.73 12.11Q-34.56 11.09-36.23 9.34Q-37.90 7.59-38.56 5.23Q-39.23 2.87-39.23 0.20L-39.23 0.20ZM-32.16-0.82L-32.16-0.82Q-32.16 0.67-32.02 2.07Q-31.88 3.46-31.12 4.53Q-30.35 5.59-28.68 6.21Q-27.01 6.84-23.90 6.84L-23.90 6.84Q-20.80 6.84-19.13 6.21Q-17.46 5.59-16.69 4.53Q-15.93 3.46-15.79 2.07Q-15.65 0.67-15.65-0.82L-15.65-0.82Q-15.65-2.31-15.79-3.69Q-15.93-5.06-16.69-6.13Q-17.46-7.19-19.13-7.82Q-20.80-8.44-23.90-8.44L-23.90-8.44Q-27.01-8.44-28.68-7.82Q-30.35-7.19-31.12-6.13Q-31.88-5.06-32.02-3.69Q-32.16-2.31-32.16-0.82Z"/><path fill="#ffffff" opacity="1" d="M21.72 12.35L-3.47 12.35L-3.47-13.99L3.61-13.99L3.61 6.06L21.72 6.06L21.72 12.35Z"/></g><g transform="matrix(2.79 0 0 2.56 300.3569358704905 270.142863051517)"  >
<path style="stroke: none; stroke-width: 1; stroke-dasharray: none; stroke-linecap: butt; stroke-dashoffset: 0; stroke-linejoin: miter; stroke-miterlimit: 4; fill: rgb(255,255,255); fill-rule: nonzero; opacity: 1;"  transform=" translate(-49.95, -50)" d="M 91.7 49 H 8.3 c -0.6 0 -1 0.4 -1 1 s 0.4 1 1 1 h 83.3 c 0.6 0 1 -0.4 1 -1 S 92.2 49 91.7 49 z" stroke-linecap="round" />
</g>
<g transform="matrix(0.90384 0 0 0.90384 119.69200000000001 246.69200000000004)"  >
<g style=""   >
		<g transform="matrix(1 0 0 1 -16.367794000000004 2.2935791000000023)"  >
<circle style="stroke: none; stroke-width: 1; stroke-dasharray: none; stroke-linecap: butt; stroke-dashoffset: 0; stroke-linejoin: miter; stroke-miterlimit: 4; fill: rgb(255,255,255); fill-rule: nonzero; opacity: 1;"  cx="0" cy="0" r="2" />
</g>
		<g transform="matrix(1 0 0 1 -1.0152550000000033 2.2935791000000023)"  >
<circle style="stroke: none; stroke-width: 1; stroke-dasharray: none; stroke-linecap: butt; stroke-dashoffset: 0; stroke-linejoin: miter; stroke-miterlimit: 4; fill: rgb(255,255,255); fill-rule: nonzero; opacity: 1;"  cx="0" cy="0" r="2" />
</g>
		<g transform="matrix(1 0 0 1 14.337287900000007 2.2935791000000023)"  >
<circle style="stroke: none; stroke-width: 1; stroke-dasharray: none; stroke-linecap: butt; stroke-dashoffset: 0; stroke-linejoin: miter; stroke-miterlimit: 4; fill: rgb(255,255,255); fill-rule: nonzero; opacity: 1;"  cx="0" cy="0" r="2" />
</g>
		<g transform="matrix(1 0 0 1 -31.2205758 2.24072270000001)"  >
<path style="stroke: none; stroke-width: 1; stroke-dasharray: none; stroke-linecap: butt; stroke-dashoffset: 0; stroke-linejoin: miter; stroke-miterlimit: 4; fill: rgb(255,255,255); fill-rule: nonzero; opacity: 1;"  transform=" translate(-18.2794242, -51.740722700000006)" d="M 24.0679989 67.5605469 c 0.390625 0.390625 0.9023438 0.5859375 1.4140625 0.5859375 s 1.0234375 -0.1953125 1.4140625 -0.5859375 c 0.78125 -0.78125 0.78125 -2.046875 0 -2.828125 L 13.904912 51.7402344 l 12.9912119 -12.9912109 c 0.78125 -0.78125 0.78125 -2.046875 0 -2.828125 s -2.046875 -0.78125 -2.828125 0 L 9.6627245 50.3261719 c -0.78125 0.78125 -0.78125 2.046875 0 2.828125 L 24.0679989 67.5605469 z" stroke-linecap="round" />
</g>
		<g transform="matrix(1 0 0 1 30.190071099999997 2.2407227000000063)"  >
<path style="stroke: none; stroke-width: 1; stroke-dasharray: none; stroke-linecap: butt; stroke-dashoffset: 0; stroke-linejoin: miter; stroke-miterlimit: 4; fill: rgb(255,255,255); fill-rule: nonzero; opacity: 1;"  transform=" translate(-79.6900711, -51.740722700000006)" d="M 71.0728836 67.5605469 c 0.390625 0.390625 0.9023438 0.5859375 1.4140625 0.5859375 s 1.0234375 -0.1953125 1.4140625 -0.5859375 l 14.40625 -14.40625 c 0.375 -0.375 0.5859375 -0.8837891 0.5859375 -1.4140625 s -0.2109375 -1.0390625 -0.5859375 -1.4140625 l -14.40625 -14.4052734 c -0.78125 -0.78125 -2.046875 -0.78125 -2.828125 0 s -0.78125 2.046875 0 2.828125 l 12.9921875 12.9912109 L 71.0728836 64.7324219 C 70.2916336 65.5136719 70.2916336 66.7792969 71.0728836 67.5605469 z" stroke-linecap="round" />
</g>
</g>
</g>
</svg>