<svg width="130" height="90" viewBox="0 0 130 90" fill="none" xmlns="http://www.w3.org/2000/svg">
<g id="Group 11">
<g id="Group">
<path id="Vector" d="M65.3666 0C40.7199 0 20.7872 19.814 20.7872 44.4607C20.7872 68.9929 40.7199 89.04 65.3666 89.04C90.0132 89.04 108.767 68.9929 108.767 44.4607C108.767 19.814 90.0132 0 65.3666 0ZM65.3666 81.9648C44.9633 81.9648 28.3372 64.8639 28.3372 44.4607C28.3372 23.9387 44.9633 6.95651 65.3666 6.95651C85.7698 6.95651 101.217 23.9387 101.217 44.4607C101.217 64.8639 85.7698 81.9648 65.3666 81.9648Z" fill="#C1C2D3"/>
</g>
<g id="Group_2">
<path id="Vector_2" d="M129.555 30.187H0V58.3219H129.555V30.187Z" fill="#000319"/>
</g>
<g id="Group_3">
<path id="Vector_3" d="M41.8406 43.9876C41.0606 43.6739 38.1949 43.2457 38.1949 42.0545C38.1949 41.177 39.2674 40.9269 39.9118 40.9269C40.4968 40.9269 41.1963 41.1007 41.5693 41.4525C41.8025 41.6857 41.9 41.8425 41.9763 42.0375C42.0738 42.2919 42.1331 42.5632 42.5062 42.5632H44.4138C44.8632 42.5632 44.9819 42.4869 44.9819 42.0163C44.9819 39.4431 42.2688 38.3113 39.7931 38.3113C37.3556 38.4088 35.0537 39.6593 35.0537 42.1944C35.0537 44.6701 36.8681 45.4501 38.8393 46.0732C40.4968 46.5989 42.2306 46.6201 42.2306 47.7096C42.2306 48.8033 41.3743 49.0364 40.3188 49.0364C39.5981 49.0364 38.8011 48.8626 38.4111 48.3921C38.1568 48.0996 38.0593 47.8495 38.0381 47.5951C37.9999 47.1076 37.7837 47.0483 37.3386 47.0483H35.4437C34.9986 47.0483 34.8799 47.1458 34.8799 47.5951C34.8799 50.3252 37.6862 51.7283 40.1238 51.7283C43.1294 51.7283 45.3125 50.4015 45.3125 47.6333C45.3125 44.9795 43.2438 44.4157 41.8406 43.9876Z" fill="#C1C2D3"/>
<path id="Vector_4" d="M57.674 42.72C57.674 39.6381 54.749 38.3113 52.4302 38.3113C50.1113 38.3113 47.2244 39.6381 47.2244 42.72V47.3196C47.2244 50.4015 50.1113 51.7283 52.4302 51.7283C54.749 51.7283 57.674 50.4015 57.674 47.3196V42.72ZM54.6133 47.0483C54.6133 48.2946 53.7189 49.0195 52.4302 49.0195C51.1626 49.0195 50.2639 48.2946 50.2639 47.0483V42.9913C50.2639 41.745 51.1626 41.0244 52.4302 41.0244C53.7189 41.0244 54.6133 41.745 54.6133 42.9913V47.0483Z" fill="#C1C2D3"/>
<path id="Vector_5" d="M69.3191 44.7841C69.4929 44.7078 70.7392 44.0847 70.7392 42.1134C70.7392 40.2821 69.3742 38.5864 66.199 38.5864H60.739C60.2896 38.5864 60.1709 38.7984 60.1709 39.1502V50.8716C60.1709 51.2192 60.2896 51.4354 60.739 51.4354H66.4703C69.1792 51.4354 71.1123 50.1679 71.1123 47.6922C71.1123 45.5853 69.4717 44.8435 69.3191 44.7841ZM66.5085 48.6672H63.2316V41.3334H66.199C67.2122 41.3334 67.8142 41.5496 67.8142 42.4271C67.8142 43.1859 67.3267 43.5972 66.199 43.5972H65.9447C65.4953 43.5972 65.3766 43.8091 65.3766 44.161V45.6447C65.3766 45.9965 65.4953 46.2085 65.9447 46.2085H66.394C67.3267 46.2085 68.0092 46.484 68.0092 47.3997C68.0092 48.2772 67.4665 48.6672 66.5085 48.6672Z" fill="#C1C2D3"/>
<path id="Vector_6" d="M83.6518 42.72C83.6518 39.6381 80.7267 38.3113 78.4037 38.3113C76.0848 38.3113 73.1979 39.6381 73.1979 42.72V47.3196C73.1979 50.4015 76.0848 51.7283 78.4037 51.7283C80.7267 51.7283 83.6518 50.4015 83.6518 47.3196V42.72ZM80.5869 47.0483C80.5869 48.2946 79.6924 49.0195 78.4037 49.0195C77.1361 49.0195 76.2417 48.2946 76.2417 47.0483V42.9913C76.2417 41.745 77.1361 41.0244 78.4037 41.0244C79.6924 41.0244 80.5869 41.745 80.5869 42.9913V47.0483Z" fill="#C1C2D3"/>
<path id="Vector_7" d="M94.8221 48.7055H89.2094V39.1716C89.2094 38.7222 88.9932 38.6035 88.6413 38.6035H86.7125C86.3606 38.6035 86.1444 38.7222 86.1444 39.1716V50.8717C86.1444 51.2194 86.2631 51.4356 86.7125 51.4356H94.8221C95.2714 51.4356 95.3901 51.2194 95.3901 50.8717V49.2693C95.3901 48.9217 95.2714 48.7055 94.8221 48.7055Z" fill="#C1C2D3"/>
</g>
</g>
</svg>
