<svg width="190" height="190" viewBox="0 0 190 190" fill="none" xmlns="http://www.w3.org/2000/svg">
<g id="telegram_logo_88nqim2ujuw9 1" clip-path="url(#clip0_46047_154)">
<g id="Group">
<path id="Vector" d="M152.531 179.476C151.051 179.476 149.581 179.038 148.32 178.183L100.679 145.867L75.127 164.253C73.123 165.694 70.54 166.057 68.213 165.225C65.889 164.391 64.124 162.466 63.494 160.079L50.664 111.457L4.821 93.9279C1.935 92.8239 0.020999 90.0629 -9.68765e-07 86.9729C-0.021001 83.8829 1.855 81.0959 4.727 79.9529L179.039 10.5929C179.83 10.2569 180.667 10.0629 181.511 10.0109C181.813 9.99294 182.116 9.99294 182.417 10.0099C184.165 10.1139 185.882 10.8259 187.222 12.1399C187.361 12.2759 187.493 12.4149 187.618 12.5599C188.728 13.8279 189.338 15.3739 189.453 16.9489C189.481 17.3449 189.479 17.7459 189.444 18.1469C189.42 18.4329 189.379 18.7179 189.321 19.0009L159.898 173.38C159.425 175.86 157.737 177.936 155.405 178.903C154.48 179.287 153.503 179.476 152.531 179.476ZM104.862 130.579L147.299 159.364L170.193 39.2399L87.506 118.806L104.662 130.444C104.731 130.487 104.797 130.533 104.862 130.579ZM69.535 124.178L75.217 145.708L87.459 136.899L71.429 126.025C70.684 125.521 70.046 124.893 69.535 124.178ZM28.136 86.7819L59.614 98.8169C61.869 99.6789 63.571 101.575 64.187 103.909L68.179 119.038C68.362 117.293 69.153 115.651 70.438 114.414L149.227 38.5999L28.136 86.7819Z" fill="white"/>
</g>
</g>
<defs>
<clipPath id="clip0_46047_154">
<rect width="189.473" height="189.473" fill="white"/>
</clipPath>
</defs>
</svg>
