<svg width="97" height="97" viewBox="0 0 97 97" fill="none" xmlns="http://www.w3.org/2000/svg">
<g id="social_587v2yobrqre 1" clip-path="url(#clip0_46047_136)">
<g id="Group">
<path id="Vector" d="M92.499 65.1781C89.626 61.7321 86.245 58.7911 83.046 55.6681C80.16 52.8531 79.978 51.2201 82.298 47.9711C84.83 44.4251 87.553 41.0151 90.108 37.4851C92.493 34.1861 94.931 30.8961 96.186 26.9461C96.982 24.4331 96.278 23.3231 93.701 22.8831C93.257 22.8061 92.798 22.8021 92.346 22.8021L77.057 22.7841C75.174 22.7561 74.133 23.5771 73.467 25.2461C72.568 27.5021 71.641 29.7561 70.57 31.9331C68.14 36.8691 65.426 41.6401 61.621 45.6801C60.782 46.5711 59.854 47.6971 58.452 47.2331C56.698 46.5931 56.181 43.7031 56.21 42.7261L56.195 25.0791C55.855 22.5581 55.296 21.4341 52.793 20.9441L36.911 20.9471C34.791 20.9471 33.728 21.7661 32.596 23.0921C31.943 23.8581 31.746 24.3551 33.088 24.6091C35.724 25.1091 37.209 26.8151 37.603 29.4581C38.235 33.6811 38.191 37.9211 37.827 42.1611C37.72 43.3991 37.507 44.6341 37.016 45.7901C36.248 47.6071 35.008 47.9771 33.379 46.8591C31.904 45.8471 30.868 44.4191 29.854 42.9851C26.045 37.6031 23.006 31.7991 20.528 25.7001C19.812 23.9381 18.577 22.8701 16.71 22.8411C12.123 22.7681 7.535 22.7561 2.948 22.8451C0.188001 22.8971 -0.634999 24.2371 0.489001 26.7391C5.485 37.8521 11.046 48.6561 18.305 58.4981C22.032 63.5491 26.311 68.0081 31.839 71.1681C38.104 74.7501 44.848 75.8281 51.951 75.4961C55.277 75.3401 56.276 74.4751 56.43 71.1601C56.534 68.8921 56.791 66.6371 57.91 64.5991C59.008 62.5991 60.671 62.2181 62.588 63.4621C63.547 64.0851 64.355 64.8781 65.118 65.7141C66.99 67.7621 68.795 69.8721 70.738 71.8511C73.175 74.3311 76.062 75.7961 79.692 75.4971L93.744 75.5001C96.008 75.3521 97.182 72.5761 95.882 70.0491C94.969 68.2791 93.771 66.7031 92.499 65.1781Z" fill="white"/>
</g>
</g>
<defs>
<clipPath id="clip0_46047_136">
<rect width="96.496" height="96.496" fill="white"/>
</clipPath>
</defs>
</svg>
